# xmcd
#
# Track frame offsets:
#   150
#   17157
#   32007
#   45020
#   59267
#   79660
#   91760
#   109592
#   121735
#   134625
#   146622
#   157770
#   173760
#   187785
#
# Disc length: 2696 seconds
#
# Revision: 0
# Processed by: cddbd v1.4PL0 Copyright (c) Steve Scherf et al.
# Submitted via: uFREEDB ActiveX Control 1.5
#
DISCID=9e0a860e
DTITLE=Vários - Show de Bandas - Vol 7
DYEAR=1900
DGENRE=Bandinha
TTITLE0=Maria tchá tchá tchá - Terceira Dimensão
TTITLE1=O italiano e o alemão - Rainha Musical
TTITLE2=Casamento forçado - Musical Universo
TTITLE3=Bailão do tio mané - Os Atuais
TTITLE4=A namorada que voltou - Banda Show Céu e Encantos
TTITLE5=Morenaça - San Marino
TTITLE6=O véinho e a Maria - Danúbio Azul
TTITLE7=A gostosona - Sangue Latino
TTITLE8=Me telefona - Banda Legal
TTITLE9=Eu tô legal - Grupo Momento
TTITLE10=Fritz, a loira e a bicicleta - Cosmo Express
TTITLE11=Feliz Aniversário - Musical JM
TTITLE12=Meu amor, meu tesouro - Banda Silver Som
TTITLE13=Menina não sai da roça - Cia do Baile
EXTD=
EXTT0=
EXTT1=
EXTT2=
EXTT3=
EXTT4=
EXTT5=
EXTT6=
EXTT7=
EXTT8=
EXTT9=
EXTT10=
EXTT11=
EXTT12=
EXTT13=
PLAYORDER=
